<?xml version="1.0" encoding="utf-8"?>
<!-- Generator: Adobe Illustrator 19.0.0, SVG Export Plug-In . SVG Version: 6.00 Build 0)  -->
<svg version="1.1" id="Logo_1_" xmlns="http://www.w3.org/2000/svg" xmlns:xlink="http://www.w3.org/1999/xlink" x="0px" y="0px"
	 viewBox="123 -12.7 858.5 817.7" style="enable-background:new 123 -12.7 858.5 817.7;" xml:space="preserve">
<style type="text/css">
	.st0{fill:#FFFFFF;}
</style>
<g id="Logo">
	<g>
		<path class="st0" d="M667.9,44.7c0,0-0.1,0.1,0.1,0.4c3.8,8.7,5.9,18.6,5.9,28.8c0,15.5-4.9,29.2-13,38.9
			c15.5,14.2,25.6,37,25.6,62c0,39.8-25.6,71.6-58,71c-33.3-0.6-61-35.1-61-76.9c0-26.3,10.9-48.5,27.3-60.8
			c-8.7-11.3-14.1-26.5-14.1-42.9c0-10.9,2.4-20.8,6.6-29.1L123-12.7V805l858.5-154.5V77.7L667.9,44.7z M517.9,170.7
			c1.9,74.6,52.8,133,110.6,132.6c56.7-0.3,99.4-55.3,101.1-122.2c8.2,20.4,12.7,43.1,12.7,66.8c0,77.3-48.5,143.6-113.9,146.6
			c-67.1,3-126-64-126-151C502.5,216.7,508.1,191.9,517.9,170.7z M783,232.2c10,28.2,15.4,59.1,15.4,91.1
			c0,115.4-71,219.5-170.2,230.6c-105.5,11.8-198.9-89.4-198.9-224.8c0-39.4,7.9-76.2,21.7-108.3c-0.6,7.1-0.9,14.4-0.9,21.8
			c0,122,83.7,215.9,178.4,209.4c89.8-6.2,155-98,155-203.3C783.5,243.2,783.3,237.7,783,232.2z M217.2,64.7l266.4,21.6
			c-33.1,26-60.9,62.1-80.1,105.1l-186.3-7V64.7z M217.2,251.8l165.6,2.2c-5.4,24.4-8.3,50.1-8.3,76.8c0,6.9,0.2,13.7,0.6,20.5
			l-157.9,3.8V251.8z M217.2,422.5l167.3-8.1c9.6,38.7,25.6,73.5,46.5,102.8l-213.8,19.1V422.5z M932.5,609.2L217.2,720.5V603.8
			l268.5-30.5c41.3,30.4,90.9,45.1,142.5,38c49.4-6.7,93-31.8,127.4-68.7l177-20.1v86.7H932.5z M932.5,472.5L797,484.6
			c15.1-27.8,26.3-58.8,33-91.6l102.5-4.9V472.5z M932.5,338l-96,2.3c0.3-5.6,0.4-11.2,0.4-16.9c0-21.6-2-42.8-5.8-63.3l101.3,1.4
			L932.5,338L932.5,338z M932.5,211.3l-115.8-4.4c-13.8-37.8-34.1-71.5-59.6-98.5l175.4,14.2V211.3z M628.5,98
			c12.7,1,22.9-10.9,22.9-26.6s-10.2-29.5-22.9-30.9c-12.8-1.4-23.4,10.5-23.4,26.6S615.7,97,628.5,98z"/>
	</g>
</g>
</svg>
